<svg xmlns="http://www.w3.org/2000/svg" viewBox="0 0 41 41.02" width="30" height="30" fill="#d4d4d4"><path d="M0 20.51a20.5 20.5 0 0135-14.5l-1.25 1.17a18.79 18.79 0 00-32 13.33zm41 0a20.5 20.5 0 01-35 14.5l1.23-1.19a18.79 18.79 0 0032.06-13.31zM20.49 5.14a14.85 14.85 0 017.69 2.08 15.55 15.55 0 015.61 5.61 15.27 15.27 0 010 15.38 15.63 15.63 0 01-5.61 5.61 15.25 15.25 0 01-15.37 0 15.66 15.66 0 01-5.62-5.61 15.25 15.25 0 010-15.37 15.58 15.58 0 015.61-5.62 14.88 14.88 0 017.69-2.08zm12 9.43a13.26 13.26 0 00-3.2-4.19 12.64 12.64 0 00-4.64-2.57 17.12 17.12 0 012.72 6.76zm-6.51 6a32.93 32.93 0 00-.25-4H15.28a31.88 31.88 0 000 7.93H25.7a32.77 32.77 0 00.3-3.98zM20.49 7.13c-.86 0-1.75.66-2.66 2a15 15 0 00-2.17 5.46h9.67a15.15 15.15 0 00-2.17-5.48q-1.36-1.98-2.67-1.98zm-4.15.68a12.6 12.6 0 00-4.62 2.57 13.08 13.08 0 00-3.19 4.19h5.08a17.66 17.66 0 012.73-6.76zM7.1 20.52a13.11 13.11 0 00.62 4h5.58a32.44 32.44 0 01-.25-3.94 33.43 33.43 0 01.25-4H7.72a13 13 0 00-.62 3.94zm1.43 5.95a13.08 13.08 0 003.19 4.19 12.6 12.6 0 004.62 2.57 17.29 17.29 0 01-2.73-6.76zm12 7.44q1.31 0 2.67-2a15.22 15.22 0 002.17-5.46h-9.71a15 15 0 002.17 5.46c.91 1.34 1.79 2 2.66 2zm4.22-.68a12.68 12.68 0 004.55-2.57 13.11 13.11 0 003.2-4.19h-5.13a18.57 18.57 0 01-2.66 6.76zm3-8.74h5.58a13 13 0 000-7.94h-5.65a30.54 30.54 0 01.25 3.94 31.47 31.47 0 01-.25 4zm9.96-14.48L35 4.31l-3 3zm-34.42 21L6 36.71l3-3z" fill-rule="evenodd"></path></svg>
