<svg xmlns="http://www.w3.org/2000/svg" viewBox="0 0 42 49.97" width="42" height="50" fill="#d4d4d4"><path d="M6.34 19.2a2.84 2.84 0 00-.93-2.12 3 3 0 00-2.19-.89 3.27 3.27 0 00-2.24.89 2.8 2.8 0 00-1 2.12v12.95a2.88 2.88 0 001 2.23 3.32 3.32 0 002.3.89 3 3 0 002.19-.89 3 3 0 00.87-2.23V19.2zm1.09 17.52v-20h27.13v20a3.3 3.3 0 01-3.25 3.35h-2.22v6.81a2.74 2.74 0 01-1.53 2.73 3.27 3.27 0 01-3 0 2.76 2.76 0 01-1.48-2.73v-6.81h-4.16v6.81a2.8 2.8 0 01-1.48 2.68 3.18 3.18 0 01-3 0 2.74 2.74 0 01-1.53-2.73v-6.76h-2.2a3.3 3.3 0 01-3.28-3.32zm27.13-21.09a11.88 11.88 0 00-1.86-6.42 13 13 0 00-5-4.63l2.08-3.9a.4.4 0 00-.05-.55l-.12-.07c-.25-.11-.42-.06-.49.17l-2.19 3.9a14 14 0 00-5.92-1.22 14.89 14.89 0 00-6 1.22L12.82.23c-.07-.23-.24-.28-.49-.17a.4.4 0 00-.23.5.75.75 0 00.07.12l2.07 3.9a13.39 13.39 0 00-5.08 4.63 11.64 11.64 0 00-1.92 6.42zM16.01 9.49a1 1 0 01-.32.78 1.16 1.16 0 01-1.64 0 1.05 1.05 0 01-.33-.78 1.29 1.29 0 01.32-.84 1.06 1.06 0 011.49-.15 1.14 1.14 0 01.16.15 1.29 1.29 0 01.32.84zm12.36 0a1.08 1.08 0 01-.32.78 1 1 0 01-.77.34 1.24 1.24 0 01-.82-.34 1 1 0 01-.45-.78 1.18 1.18 0 01.38-.84 1.16 1.16 0 01.82-.39 1 1 0 01.77.39 1.29 1.29 0 01.34.84zm10.34 6.7a3.32 3.32 0 012.3.89 2.8 2.8 0 011 2.12v12.95a2.88 2.88 0 01-1 2.23 3.27 3.27 0 01-2.24.89 3 3 0 01-2.19-.89 3 3 0 01-.93-2.23V19.31a3.11 3.11 0 013.06-3.12z" fill-rule="evenodd"></path></svg>
