<svg xmlns="http://www.w3.org/2000/svg" viewBox="0 0 50 50" width="30" height="30" fill="#d4d4d4"><path d="M44.05 21.72c7.91-.1 2.09-6.8-1.56-8.5 0 0 4.82-11.22 4.32-11.52-.07 0-5.75 11-5.75 11a35.79 35.79 0 00-8.94-2.21C28.45 3.2 24.59-.51 21.62.04s-4.85 2.7-5.13 8.15c-4.7-5.06-7.25 1.88-6.64 6.11A18.27 18.27 0 000 18.12s6.69-2.56 10-2.42a23.91 23.91 0 002.41 9.2c-5.87 8.54-8.07 20.6 6.13 14.4-2.08 5.39 2.67 5.48 8.33 2.65l6.86 8-5.48-9a26.07 26.07 0 006.62-7c16.24 1.12 19.56-4.88 9.17-12.26zM29.17 10.36a20.39 20.39 0 00-8.93 2.25c.28-8.24 4.37-10.07 8.93-2.25zm-12.65 3.93l-3.82-.1c-.56-2.81 1.45-5.9 3.63-4-.42.81.05 3.31.19 4.1zm-2.67 13c3.93 6.39 5.29 6.71 5.29 6.71-7 3-9.08.28-5.29-6.71zm9.62 8.63l2.08 3.51c-4.82 2.4-7.91-.11-2.08-3.5zm3.43 2.63c-.49-1.12-.8-1.72-1.24-2.77 1.46-.67 4.4-1.78 4.4-1.78s-3.48.3-4.32.42c3.27-2.35 11-11.66 11-11.66l-2.15-1.09c-4 4.41-7.93 8.29-13.25 11.42-6.94-7.61-7.76-11.65-8.63-17.27 0 0 2.6.21 3.6.32a43.54 43.54 0 00-.8 5.2s.54-3 1.8-4.3c1 5.11 4.42 15 4.42 15l2-1.39c-1.59-5.71-3.2-11.16-3.35-17.11 7.35-2.72 14-.86 19.21 1.51-.7.9-2 2.65-2 2.65a16.79 16.79 0 00-4.14-3.42 23.27 23.27 0 013.23 4c-5.1-1.62-15.47-3.5-15.47-3.5l.01 2.22a59.72 59.72 0 0116.68 5.74c-2.36 7.38-5.22 12.42-11 15.81zM36 32a24.43 24.43 0 003.07-8.64c5.59 4.23 7.11 8.23-3.07 8.64zm6.6-11.12l-3.6-1.6s1.47-2.25 2.2-3.34c4.07 3.13 3.13 4.57 1.47 5z" fill-rule="evenodd"></path></svg>
