<svg xmlns="http://www.w3.org/2000/svg" viewBox="0 0 647.17 750.98" width="65" height="75" fill="#d4d4d4"><path d="M276.68 138.46h-18v106.13h18c11.05 0 16.37-5.35 16.37-16.87v-72.4c0-11.51-5.32-16.86-16.37-16.86z"></path><path fill-rule="evenodd" d="M244.07 507.98l-.47-1.2-.48-1.07-.35-1.08-.47-1.08-.48-1.2-.36-1.08-.46-1.07-.47-1.08-.36-1.08-.48-1.2-.35-1.07-.48-1.09-.48-1.07-.35-1.08-.48-1.2-.47-1.08-.36-1.07-.48-1.08-.47-1.2-.36-1.08-.48-1.08-.47 1.08-.36 1.08-.48 1.2-.47 1.08-.36 1.07-.47 1.08-.48 1.2-.47 1.08-.36 1.07-.48 1.09-.48 1.07-.35 1.2-.48 1.08-.48 1.08-.35 1.07-.48 1.08-.47 1.2-.48 1.08-.35 1.08-.48 1.07-.48 1.2-.36 1.08-.47 1.08h20.11l-.5-1.08-.36-1.08z"></path><path d="M588.4 0H58.77C15.84 0 0 15.84 0 58.79V577a133.49 133.49 0 00.63 13.56c1 9.38 1.16 18.46 9.88 28.8.85 1 9.75 7.64 9.75 7.64 4.79 2.35 8.06 4.08 13.46 6.25l260.79 109.29c13.54 6.2 19.2 8.62 29 8.43h.08c9.83.19 15.5-2.23 29-8.43l260.86-109.27c5.4-2.17 8.67-3.9 13.46-6.25 0 0 8.9-6.62 9.75-7.64 8.72-10.34 8.9-19.42 9.88-28.8a133.49 133.49 0 00.63-13.56V58.79C647.17 15.84 631.32 0 588.4 0zM356.61 99.8h43.8v287.93h-43.8zm-19.08 392.14l.59.95.6-.95.6-1.07.71-1 .59-1.07.6-1 .59-1.08.71-1 .6-1.07.6-1 .59-.95.72-1.07.59-1 .6-1.07.59-1 .71-1.07.6-1 .6-1.07.59-1 .6-1 .71-1.07.59-1 .6-1.08.59-1 .72-1.06.59-1 .6-1 .6-1.07.71-.95.59-1.08.59-1 .6-1.07.72-1 .59-1.08.6-.95h24.39v87l-1.19-.21h-21.78v-51.33l-.59.95-.71 1.09-.6.95-.71 1-.6 1.07-.72 1-.59 1-.59 1.08-.71 1-.6.95-.72 1-.59 1.08-.72 1-.59 1-.6 1.08-.71 1-.59 1-.72 1.07-.59 1-.72 1-.59 1.08-.6 1-.71 1-.59 1.08-.72 1-.59 1-.72 1-.6 1.07-.59 1-.71 1-.6 1.08-.71.95-.6 1-.71 1.08-.6 1h-.47l-.72-1.08-.59-1-.72-1.08-.59-1-.71-1.08-.6-1-.71-1.08-.6-1-.72-1.07-.59-1-.71-1.08-.59-1-.72-1.07-.6-1-.71-1.08-.6-1-.71-1.07-.71-1-.6-1.08-.71-1-.6-1.07-.71-1-.6-1.08-.71-1-.6-1.08-.71-.95-.59-1.08-.72-1-.59-1.08-.72-1-.6-1.08-.71-.95-.6-1.09-.7-1v51.21h-22.62v-87h24.4l.59.95.6 1.08.71.95.6 1.07.6 1 .59 1.08.59.95.72 1.07.59 1 .6 1 .59 1.06.6 1 .71 1.08.6 1 .59 1.07.59 1 .72 1 .6 1.07.59 1 .6 1.07.59 1 .72 1.07.59 1 .59 1.07.6.95.59 1 .72 1.07.6 1 .59 1.08.59 1 .6 1.07.71 1zM214.87 99.8h68.8c35.62 0 53.22 17.68 53.22 53.47v76.51c0 35.79-17.6 53.47-53.22 53.47h-25v104.48h-43.8zm-119.39 0h97.43v39.89h-53.64v81.41h51.58V261h-51.58v86.83h54.45v39.9H95.48zm82.9 433.29l-.83.72-1 .71-.83.6-.95.72-1 .6-1 .71-1 .6-1 .6-1.07.6-1.07.59-1.07.6-1.08.47-1.07.6-1.18.48-1.07.48-1.2.47-1.07.48-1.07.36-1.07.36-1.07.36-1.19.36-1.07.36-1.19.24-1.07.24-1.19.23-1.2.24-1.18.12-1.31.12-1.19.12-1.31.12-1.19.12-1.31.12h-5.12l-1.19-.12-1.31-.12-1.19-.12-1.18-.12-1.2-.12-1.19-.24-1.19-.24-1.06-.23-1.2-.24-1.07-.36-1.19-.24-1.07-.36-1.07-.48-1.07-.36-1.19-.48-1.07-.47-1.07-.48-1.07-.48-1.08-.6-1-.59-1.07-.6-1-.59-1-.6-1-.72-1-.71-1-.72-.83-.72-.83-.72-.84-.83-.83-.72-.84-.84-.83-.83-.71-.84-.71-1-.72-.83-.6-1-.71-1-.6-1-.59-1-.27-.87-.6-1-.47-1-.45-1.07-.48-1.08-.47-1.07-.36-1-.48-1.08-.21-1.07-.35-1.08-.24-1.19-.41-1.08v-1.18l-.16-1.1-.24-1.2-.12-1.07-.12-1.2-.12-1.19-.11-1.2v-3.94l.11-1.32v-1.19l.12-1.2.12-1.31.24-1.19.12-1.2.23-1.07.36-1.2.24-1.19.35-1.08.36-1.19.36-1.08.48-1.2.47-1.07.48-1.08.48-1.07.47-1.08.6-1.08.59-.95.59-1 .6-.95.6-1 .71-1 .72-.95.71-1 .71-.84.83-.83.72-.84.83-.84.84-.83.83-.72 1-.84.83-.71 1-.72 1-.6 1-.72 1-.59.94-.6 1.07-.6 1.08-.6 1.07-.59 1.07-.48 1.07-.48 1.19-.6 1-.36 1.19-.36 1.07-.47 1.07-.24 1.07-.36 1.2-.24 1.06-.36 1.19-.24 1.19-.12 1.2-.24 1.19-.12 1.18-.12 1.19-.12 1.2-.12h5.11l1.31.12 1.31.12h.95l1.19.12 1.31.24 1.07.12 1.19.24 1.19.24 1.07.24 1.07.24 1.07.24 1.08.36 1.07.23.95.36 1.07.36 1.07.48 1.07.48 1.08.48 1.07.59 1.06.48 1 .6 1.07.6 1 .59 1.07.6 1 .72 1 .6 1 .72 1 .71.95.84 1 .72-.71.95-.83.84-.72 1-.83 1-.72 1-.71.83-.84 1-.7 1-.72.84-.83 1-.72 1-.83.95-.72.84-.71 1-.83.95-.71 1-.84.84-.71 1-1-.72-1-.83-.95-.6-1-.72-1-.59-1-.6-1-.6L154 480l-.95-.48-1-.47-1-.36-1.07-.36-1-.33-1.08-.24-1.19-.24-1.19-.24-1.19-.12L143 477l-1.32-.11h-2.49L138 477l-1.08.12-1.19.24-1.07.24-1.07.36-1.07.36-1.07.48-1.07.47-.95.6-1 .6-1 .6-.83.72-.84.71-.83.72-.71.84-.83.83-.72 1-.59.84-.6.95-.59 1.08-.6.95-.47 1.08-.36 1.08-.47 1.07-.36 1.2-.24 1.19-.24 1.07-.24 1.32-.12 1.19-.11 1.2v2.75l.11 1.19.12 1.08.12 1.19.24 1.08.24 1.08.24 1.07.36 1.08.35.95.48 1.2.47 1.07.59 1.08.6 1 .6 1 .71 1 .72.84.83.83.71.84.83.72 1 .71 1 .72 1 .6.95.6 1.07.47 1.07.48 1.08.48 1.19.36 1.18.36 1.2.24 1.19.24 1.19.12 1.3.12h2.74l1.31-.12 1.31-.12 1.19-.12 1.19-.24 1.19-.24 1.19-.36 1.07-.24 1.07-.48 1-.48 1.07-.47.83-.48.95-.6v-11h-17.42v-17.46h39.27zm9.33 10.78l.47-1.08.48-1.07.47-1.2.36-1.07.48-1.07.48-1.08.47-1.07.48-1.08.48-1.19.47-1.08.48-1.07.35-1.08.48-1.08.47-1.07.48-1.2.48-1.07.47-1.08.48-1.08.48-1.07.36-1.08.47-1.19.47-1.08.48-1.07.47-1.08.48-1.08.48-1.07.47-1.2.36-1.07.48-1.08.48-1.07.47-1.08.48-1.08.47-1.19.48-1.08.47-1.07.36-1.08.48-1.07.47-1.08.48-1.2.48-1.07.47-1.08.48-1.07.47-1.08.36-1.08.48-1.06.47-1.2.48-1.07.47-1.08.48-1.08.48-1.07.47-1.08.36-1.19.48-1.08.47-1.08.48-1.07.47-1.08.48-1.07.47-1.2.48-1.07.36-1.08.48-1.08.47-1.07.48-1.08.47-1.19.48-1.08.47-1.07.48-1.08.35-1.08.48-1.07.48-1.2.48-1.07.47-1.08.48-1.08.48-1.07.47-1.08.36-1.19.47-1.08.48-1.07.47-1.08h22l.48 1.08.48 1.07.47 1.08.47 1.19.36 1.08.47 1.07.48 1.08.48 1.08.48 1.07.47 1.2.48 1.07.48 1.08.35 1.08.48 1.07.47 1.08.48 1.19.5 1.09.48 1.07.48 1.08.47 1.08.36 1.07.48 1.2.47 1.07.48 1.08.47 1.07.48 1.08.47 1.08.48 1.19.36 1.08.47 1.07.48 1.08.48 1.08.48 1.07.47 1.2.48 1.06.47 1.08.36 1.08.47 1.07.48 1.08.47 1.07.48 1.2.48 1.08.48 1.07.47 1.08.36 1.07.47 1.08.48 1.19.47 1.08.48 1.08.48 1.07.47 1.08.48 1.07.36 1.2.47 1.07.48 1.08.48 1.08.47 1.07.48 1.08.47 1.19.48 1.08.35 1.07.48 1.08.48 1.08.47 1.07.48 1.2.48 1.07.47 1.08.48 1.08.36 1.07.47 1.08.47 1.19.48 1.08.48 1.07.47 1.08.48 1.07.48 1.07.36 1.2.47 1.07.48 1.08.43 1.12h-24.52l-.48-1.08-.36-1.08-.47-1.07-.48-1.2-.35-1.07-.48-1.07-.48-1.08-.38-1.15-.48-1.08-.48-1.07-.35-1.08-.48-1.19-.48-1.08-.35-1.08-.48-1.07h-34.12l-.48 1.07-.3 1.08-.48 1.08L216 533l-.35 1.08-.48 1.07-.48 1.08-.36 1.07-.47 1.08-.48 1.07-.35 1.07-.48 1.2-.47 1.07-.36 1.08-.48 1.08h-24zm133.83 146.42L198.8 648.08h250.74zm149.11-145.37h-69.38v-87h68.79v19.72H424v14.23h41.41v18.52H424v14.81h46.65zm-47.09-208.19V150.8c0-35.79 17.61-53.47 53.22-53.47h21.31c35.61 0 52.8 17.28 52.8 53.06v58.82h-43v-56.35c0-11.52-5.32-16.87-16.38-16.87h-7.36c-11.46 0-16.79 5.35-16.79 16.87v181.82c0 11.52 5.33 16.86 16.79 16.86h8.19c11 0 16.37-5.34 16.37-16.86v-65h43v67.05c0 35.79-17.6 53.47-53.21 53.47h-21.7c-35.63 0-53.24-17.68-53.24-53.47zm129.68 183.1l-.32 1.17-.12 1.19-.12 1.32-.24 1.19-.35 1.2-.24 1.07-.36 1.2-.47 1.07-.48 1-.47 1.08-.6 1-.6 1-.71 1-.6 1-.71.84-.85.84-.71.71-1 .84-.83.72-1 .71-.94.59-1 .72-1.08.6-1.07.48-1.07.59-1.19.48-1.19.48-1.19.36-1.19.36-1.07.36-1.19.24-1.07.24-1.07.23-1.14.29-1.19.12-1.07.12-1.2.12-1.3.12-1.19.12h-5l-1.19-.12h-1.31l-1.19-.12-1.19-.12-1.31-.12-1.19-.24-1.19-.12-1.19-.23-1.09-.53-1.2-.2-1.19-.24-1.19-.36-1.07-.24-1.19-.36-1.19-.36-1.07-.48-1.19-.35-1.07-.36-1.19-.48-1.08-.48-1.06-.48-1.07-.59-1.08-.48-1.06-.54-.95-.6-1.07-.6-.95-.6-1-.59-.95-.72-.95-.72-1-.72-.95-.71-.84-.72-1-.84.72-1 .83-.84.71-1 .84-1 .71-.84.71-1 .84-1 .71-.84.84-1 .71-.84.83-1 .71-1 .72-.84.83-1 .72-1 .83-.84.71-1 .95.72 1.07.72 1 .72 1.07.71.95.6 1.07.72.95.6 1.08.47.95.6 1.07.48 1.07.48 1.07.48 1.07.35 1.08.48 1.18.36 1.19.36 1.07.36 1.2.24 1.18.24 1.19.24 1.31.12 1.2.23h1.18l1.31.12h2.62l1.31-.12 1.19-.23 1.07-.24 1.07-.24 1-.36.84-.48 1-.72.71-.83.48-1 .36-1.08.12-1.19v-.24l-.12-1.44-.48-1.19-.6-.84-.83-.71-1-.72-1-.48-1.07-.48-1.2-.48-1.42-.59-.84-.24-.94-.24-1.08-.36-1.07-.24-1.19-.36-1.19-.24-1.31-.36-1.19-.23-1.31-.36-1.18-.24-1.2-.36-1.19-.24-1.19-.36-1.07-.36-1.19-.24-1.07-.36-1.07-.35-1.07-.36-1.31-.48-1.19-.48-1.19-.48-1.08.06-1.07-.59-1.19-.6-1-.6-1.07-.6-.95-.71-1-.6-.83-.72-.84-.83-.83-.84-.72-.84-.7-.84-.6-.83-.59-1-.6-1.07-.48-.83-.36-1-.35-1.08-.36-.95-.24-1.2-.22-1.07-.12-1.2-.12-1.19-.12-1.32v-2.75l.12-1.19.12-1.08.12-1.2.24-1.07.24-1.08.36-1.07.24-1.08.47-1.07.48-1.08.48-1.07.59-1.08.59-1.08.71-.95.72-1 .83-1 .84-.83.83-1 1-.84.82-.59 1-.72.95-.72.95-.6 1.08-.59 1.06-.48 1.07-.6 1.08-.48 1.19-.36 1.18-.47 1.08-.36.95-.24 1.07-.24 1.08-.24 1.18-.24 1.07-.24 1.19-.12 1.2-.12 1.18-.12 1.19-.12h5.12l1.31.12 1.31.12h1.19l1.31.12 1.19.24 1.38.08 1.19.24 1.07.24 1.19.24 1.19.24 1.07.24 1.19.35 1.07.36 1.07.24 1.19.48 1.07.36 1.07.48 1.07.48 1.2.47 1.07.6.94.48 1.08.6 1.07.59 1 .6 1.07.72 1 .6 1 .72 1 .71 1 .72-.71 1-.6.95-.71 1-.72 1-.71 1.07-.59 1-.72 1-.71 1-.6 1-.71 1-.72 1-.6 1-.7 1.08-.72 1-.71.95-.6 1-.71.95-1-.71-1.06-.6-1-.6-1-.71-1.07-.48-1-.6-1.06-.48-1-.48-1-.74-1-.47-1.07-.36-1-.48-1.31-.36-1.19-.36-1.19-.35-1.19-.24-1.19-.24-1.19-.24-1.19-.12-1.19-.12-1.07-.12h-2.62l-1.31.24-1.19.24-1.07.24-1 .47-.84.48-1.07 1-.71 1.07-.47 1.08-.12 1.2v.24l.12 1.55.59 1.31.47.72.83.84 1.08.6 1 .59 1.19.48 1.31.48 1.43.48 1 .24 1 .35 1.02.2 1.07.36 1.19.24 1.32.36 1.3.36 1.31.36 1.31.24 1.19.36 1.31.35 1.19.24 1.19.36 1.19.36 1.07.36 1.19.36 1.07.36 1.1.33 1.31.48 1.19.59 1.19.48 1.19.6 1.08.6 1.07.59.94.6 1 .72 1 .6 1 .83 1 .84.82 1 .84.83.71 1 .72 1.08.59.95.6 1.08.48.95.35 1.08.36 1.08.23 1.07.24 1.2.24 1.19.12 1.2.12 1.31z"></path></svg>
