<svg xmlns="http://www.w3.org/2000/svg" viewBox="0 0 36 36" width="30" height="30" fill="#d4d4d4"><path d="M18.01-.01a17.47 17.47 0 019 2.43 18.31 18.31 0 016.56 6.57 17.88 17.88 0 010 18 18.31 18.31 0 01-6.56 6.58 17.88 17.88 0 01-18 0 18.31 18.31 0 01-6.58-6.58 17.88 17.88 0 010-18 18.31 18.31 0 016.58-6.56 17.47 17.47 0 019-2.44zm14 11a15.45 15.45 0 00-3.74-4.9 14.83 14.83 0 00-5.4-3 20.32 20.32 0 013.19 7.9zm-14-8.67c-1 0-2.06.78-3.12 2.32a17.7 17.7 0 00-2.55 6.35h11.32a17.7 17.7 0 00-2.54-6.39c-1.06-1.5-2.11-2.28-3.11-2.28zm-4.86.8a14.8 14.8 0 00-5.41 3 15.71 15.71 0 00-3.73 4.87h5.93a20.87 20.87 0 013.2-7.91zM4.01 24.99a15.71 15.71 0 003.74 4.9 14.8 14.8 0 005.41 3 20.18 20.18 0 01-3.22-7.9zm14 8.71c1 0 2.06-.78 3.12-2.33a17.59 17.59 0 002.53-6.38H12.34a17.59 17.59 0 002.54 6.38c1.06 1.53 2.13 2.31 3.13 2.31zm4.94-.8a14.92 14.92 0 005.33-3 15.71 15.71 0 003.73-4.91h-5.95a21.84 21.84 0 01-3.12 7.91zM9.58 22.65H3.01a15.19 15.19 0 010-9.29h29.9a15.19 15.19 0 010 9.29zm3.12-8.06h4v1.3h-2.69v1.3h2.67v1.3h-2.67v1.3h2.67v1.3h-4v-6.5zm5.81 0h1.34v5.2h-1.34v-5.2zm1.34 5.2h2.66v1.3h-2.66v-1.3zm2.66-5.2h1.33v5.2h-1.33z" fill-rule="evenodd"></path></svg>
