<svg xmlns="http://www.w3.org/2000/svg" viewBox="0 0 50 48" width="50" height="48" fill="#d4d4d4"><path d="M14.9 30.82H9.08a.83.83 0 00-.82.83v4.19a.83.83 0 00.82.84h5.82v2.79H7.64a2.16 2.16 0 01-2.15-2.16v-7.13A2.15 2.15 0 017.64 28h7.26zM17 23a2.18 2.18 0 01-2.17 2.2H5.49v-2.79h7.87a.85.85 0 00.83-.85V12.2a.83.83 0 00-.83-.84H9.13a.85.85 0 00-.84.85v4.26a.84.84 0 00.83.84h3.39v2.83H7.66A2.19 2.19 0 015.49 18v-7.28a2.19 2.19 0 012.17-2.2h7.16a2.2 2.2 0 012.18 2.2zm27.51 16.47h-2.77v-8.65H39.8a.81.81 0 00-.82.83v7.82h-2.77v-8.65h-2a.82.82 0 00-.82.83v7.82h-2.72v-9.29A2.15 2.15 0 0132.82 28h11.69v11.47zm0-16.43a2.18 2.18 0 01-2.17 2.2H33v-2.83h7.87a.85.85 0 00.84-.85V12.2a.84.84 0 00-.84-.84h-4.23a.85.85 0 00-.83.85v4.26a.85.85 0 00.83.85H40v2.83h-4.82A2.19 2.19 0 0133 18v-7.28a2.19 2.19 0 012.17-2.2h7.17a2.19 2.19 0 012.17 2.2V23zM27.94 12.21v4.25a.84.84 0 01-.82.85h-4.23a.84.84 0 01-.84-.84V12.2a.84.84 0 01.83-.84h4.23a.83.83 0 01.83.83zm.64-3.68h-7.16a2.18 2.18 0 00-2.18 2.19V18a2.2 2.2 0 002.17 2.2h7.17a2.2 2.2 0 002.18-2.2v-7.28a2.19 2.19 0 00-2.17-2.2m-2.9 23.13v4.19a.82.82 0 01-.82.83H20.7a.82.82 0 01-.82-.83v-4.19a.82.82 0 01.82-.83h4.17a.83.83 0 01.82.84zm.62-3.65h-7a2.16 2.16 0 00-2.15 2.16v7.14a2.16 2.16 0 002.15 2.16h7a2.16 2.16 0 002.15-2.16v-7.12A2.15 2.15 0 0026.31 28m22.63 16.3a2.57 2.57 0 01-.76 1.83 2.53 2.53 0 01-1.82.76H3.64a2.53 2.53 0 01-1.82-.76 2.57 2.57 0 01-.76-1.83V3.67a2.59 2.59 0 012.58-2.6h42.72a2.59 2.59 0 012.58 2.6v40.66zm0-43.26A3.61 3.61 0 0046.36 0H3.64a3.63 3.63 0 00-2.57 1.07A3.68 3.68 0 000 3.67v40.66a3.68 3.68 0 001.07 2.6A3.63 3.63 0 003.64 48h42.72a3.58 3.58 0 002.57-1.08A3.64 3.64 0 0050 44.33V3.67a3.68 3.68 0 00-1.07-2.6" fill-rule="evenodd"></path></svg>
