<svg xmlns="http://www.w3.org/2000/svg" viewBox="0 0 40.01 43.01" width="40" height="43" fill="#d4d4d4"><path d="M33.57 16a17.88 17.88 0 010 18 18.31 18.31 0 01-6.56 6.58 17.88 17.88 0 01-18 0A18.31 18.31 0 012.43 34a17.88 17.88 0 010-18 18.31 18.31 0 016.58-6.56 18 18 0 0116.07-1L25.01 11a15.71 15.71 0 00-2.13-.84A20.18 20.18 0 0126.06 18h5.95a15.32 15.32 0 00-1.21-2zm-9.18 9a38.19 38.19 0 00-.29-4.65H11.9a38 38 0 000 9.29h12.2a37.9 37.9 0 00.29-4.64zM18.01 9.33c-1 0-2.06.78-3.12 2.32A17.7 17.7 0 0012.34 18h11.32a17.7 17.7 0 00-2.54-6.39c-1.06-1.5-2.11-2.28-3.11-2.28zm-4.86.8a14.8 14.8 0 00-5.41 3A15.71 15.71 0 004.01 18h5.93a20.87 20.87 0 013.2-7.91zM2.32 25a15 15 0 00.69 4.66h6.57a37.42 37.42 0 01-.29-4.61 38.43 38.43 0 01.29-4.68H3.01A14.91 14.91 0 002.32 25zm1.69 7a15.6 15.6 0 003.74 4.9 14.8 14.8 0 005.41 3A20.18 20.18 0 019.94 32zm14 8.71c1 0 2.06-.78 3.12-2.33A17.59 17.59 0 0023.66 32H12.34a17.59 17.59 0 002.54 6.38c1.06 1.55 2.1 2.33 3.12 2.33zm4.93-.8a14.88 14.88 0 005.34-3A15.71 15.71 0 0032.01 32h-5.95a21.84 21.84 0 01-3.12 7.91zm3.49-10.23h6.53a15.19 15.19 0 000-9.29h-6.54a37.13 37.13 0 01.29 4.61 38.72 38.72 0 01-.29 4.66zM38.51 6.57a1.45 1.45 0 011.06.43 1.26 1.26 0 01.44 1v5a2.54 2.54 0 01-2 2h-10a2.17 2.17 0 01-2-2V8a1.29 1.29 0 01.44-1 1.49 1.49 0 011.06-.41h.75V4.46a4.19 4.19 0 01.64-2.23A4.67 4.67 0 0130.63.6a5 5 0 014.75 0 4.59 4.59 0 011.73 1.63 4.11 4.11 0 01.65 2.23v2.11zm-4.25 4.92v-1.41a1.05 1.05 0 00-.36-.83 1.34 1.34 0 00-1.78 0 1.08 1.08 0 00-.36.83v1.41a1.08 1.08 0 00.36.83 1.34 1.34 0 001.78 0 1.13 1.13 0 00.36-.83zm1-4.92V4.46A2 2 0 0034.6 3a2.36 2.36 0 00-3.18 0 2 2 0 00-.66 1.5v2.07z" fill-rule="evenodd"></path></svg>
