<svg xmlns="http://www.w3.org/2000/svg" viewBox="0 0 50 27.51" width="50" height="28" fill="#d4d4d4"><path d="M20 12.5a.67.67 0 00-.62-.62h-3.75V8.13A.68.68 0 0015 7.5h-2.5a.67.67 0 00-.62.63v3.75H8.13a.67.67 0 00-.63.62V15a.68.68 0 00.63.63h3.71v3.75a.67.67 0 00.62.62h2.5a.68.68 0 00.63-.62v-3.75h3.75a.68.68 0 00.62-.63zm18.75-5a3.06 3.06 0 11-2.23.9 3.06 3.06 0 012.23-.9zm-5 6.25a3.06 3.06 0 11-2.23.9 3.06 3.06 0 012.23-.91zm2.5-10a10 10 0 015 1.33 9.73 9.73 0 013.67 3.66 10.23 10.23 0 010 10.08 9.73 9.73 0 01-3.63 3.63 9.85 9.85 0 01-5 1.33 9.7 9.7 0 01-4.88-1.25 13.39 13.39 0 01-2.81-2.27l-.32-.23h-6.56l-.31.31a14.85 14.85 0 01-2.81 2.19 9.73 9.73 0 01-4.89 1.21 9.88 9.88 0 01-5-1.33 9.66 9.66 0 01-3.63-3.63 10.23 10.23 0 010-10.08 9.73 9.73 0 013.63-3.63 10 10 0 015-1.33zm0-3.75h-22.5A13.68 13.68 0 000 13.62v.12A13.68 13.68 0 0013.62 27.5h.13a13.6 13.6 0 005.16-1 13.39 13.39 0 004.3-2.76h3.63a13.39 13.39 0 004.3 2.77A13.76 13.76 0 1036.29-.01z" fill-rule="evenodd"></path></svg>
