<svg xmlns="http://www.w3.org/2000/svg" viewBox="0 0 38 50.02" width="38" height="50" fill="#d4d4d4"><path d="M18.15.07a.56.56 0 01.76.22v.06a.76.76 0 01-.22.7 12 12 0 00-2.06 4.87c-.14.72 0 .54.1.57a21 21 0 016.07.28 19 19 0 019.61 5.08 18.35 18.35 0 013.89 20.8 39.05 39.05 0 01-16.44 17.29.58.58 0 01-.72-.12.62.62 0 01.08-.78 12 12 0 002-4.42 3.72 3.72 0 00.14-1 .56.56 0 00-.48-.1 19.3 19.3 0 01-10.18-1.76 18.88 18.88 0 01-8.1-7.33 18.4 18.4 0 01-.21-18.5A38.89 38.89 0 0118.15.07M18 17.81a7.49 7.49 0 00-5.17 3.2 7.17 7.17 0 00.78 9A7.51 7.51 0 0023 31.13a7.19 7.19 0 00.45-11.94A7.52 7.52 0 0018 17.81z" fill-rule="evenodd"></path></svg>
