<svg xmlns="http://www.w3.org/2000/svg" viewBox="0 0 50 38" width="50" height="38" fill="#d4d4d4"><path d="M49.56 29.1a1.69 1.69 0 00.18-2 6.11 6.11 0 00-3.47-2.14 23.16 23.16 0 00-5.56-1.29 23.88 23.88 0 00-5.73 0 29.29 29.29 0 00-6.6 1.46v4.79l8.68-3a8.63 8.63 0 012.56-.51 6.42 6.42 0 012.35.21q.9.3.78.81a1.65 1.65 0 01-1.26.86l-13.11 4.58v4.62l17.8-6.25 1.3-.6a6.44 6.44 0 002.08-1.54zm-19.44-7.87a7.43 7.43 0 004.56.81 4.85 4.85 0 003.25-2.23 8.94 8.94 0 001.22-5c0-3.25-.68-5.74-2-7.45s-3.79-3.17-7.2-4.37a88.59 88.59 0 00-11.29-3v35.53l8.16 2.47V8.3a2.67 2.67 0 01.48-1.71 1 1 0 011.17-.34c1.1.28 1.65 1.31 1.65 3.08v11.9zM3.73 32.35a26.39 26.39 0 0013.37.86v-4.22l-4 1.45a8.63 8.63 0 01-2.56.51 6.16 6.16 0 01-2.34-.21c-.61-.2-.87-.47-.79-.81a1.65 1.65 0 011.26-.86l8.42-3v-4.59L5.47 25.59a15 15 0 00-4.52 2.06 1.93 1.93 0 00-1 1.58 2.41 2.41 0 001 1.75 6.91 6.91 0 002.78 1.37z" fill-rule="evenodd"></path></svg>
