<svg xmlns="http://www.w3.org/2000/svg" viewBox="0 0 50 50" width="50" height="50" fill="#d4d4d4"><path d="M50.01 25.01a24.19 24.19 0 00-3.38-12.5 25.26 25.26 0 00-9.12-9.13A24.18 24.18 0 0025.01.01a24.2 24.2 0 00-12 3.07 25.73 25.73 0 00-9 8.32 24.06 24.06 0 00-4 11.61l13.4 5.52a7.42 7.42 0 014.44-1.21l5.94-8.67v-.1a9 9 0 012.78-6.65 9.48 9.48 0 0113.3 0 8.93 8.93 0 012.77 6.65 9.21 9.21 0 01-2.82 6.76 9 9 0 01-6.81 2.7l-8.47 6a7.14 7.14 0 01-7 7.36A6.85 6.85 0 0113 39.76a7.07 7.07 0 01-2.42-4l-9.67-3.9a24.18 24.18 0 004.94 9.32 24.46 24.46 0 008.52 6.5 24.87 24.87 0 0010.64 2.33 24.18 24.18 0 0012.5-3.37 25.26 25.26 0 009.12-9.13 24.18 24.18 0 003.38-12.5zm-34.28 12.9a3.83 3.83 0 003 0 3.87 3.87 0 002.12-2.12 3.58 3.58 0 000-3 4 4 0 00-2.07-2.07l-3.23-1.31a5 5 0 014 0 5.25 5.25 0 012.82 2.87 5 5 0 010 4 5.25 5.25 0 01-2.87 2.87 5 5 0 01-4 .05 5.41 5.41 0 01-2.87-2.62zm17.54-13.1a6.12 6.12 0 004.38-1.8 6.19 6.19 0 000-8.87 6.33 6.33 0 00-8.87 0 5.91 5.91 0 00-1.87 4.42 6 6 0 001.86 4.45 6.2 6.2 0 004.5 1.81zm0-1.51a4.52 4.52 0 01-3.38-1.41 4.74 4.74 0 010-6.66 4.46 4.46 0 013.33-1.41 4.74 4.74 0 013.48 8l-.11.11a4.57 4.57 0 01-3.32 1.4z" fill-rule="evenodd"></path></svg>
