<svg xmlns="http://www.w3.org/2000/svg" viewBox="0 0 48 49.94" width="48" height="50" fill="#d4d4d4"><path d="M42.41 33.86a19.31 19.31 0 01-18.2 11.91C9.61 45 5.37 28.14 15.12 22l.43.43a10 10 0 00-1.65 2.47 11.63 11.63 0 00-1.26 5.7c.76 11.82 17.25 14.22 22.93 2.54 7.23-16-11.93-32.3-28.94-19.86l-.39-.39c4.47-7 13.21-10.19 21.56-8.09a21.33 21.33 0 0114.61 29zm-13.65-.26a6.55 6.55 0 11-5.85-10.29A5.34 5.34 0 0127 32.37l1.77 1.23zM5.93 29.27A14.56 14.56 0 005.81 33l-.58.21a14 14 0 01-1-4 14.92 14.92 0 0112.66-16c7.35-1.09 14.38 3.5 16 9.9l-.58.21a17.49 17.49 0 00-1.59-1.84c-8.86-8.93-22.79-4.83-24.79 7.79zM48 25C47.45-.64 13.53-10.19.47 13.81c.57.42 1.37 1 2 1.4A25.36 25.36 0 000 25.93a24 24 0 0048 0v-1" fill-rule="evenodd"></path></svg>
