<svg xmlns="http://www.w3.org/2000/svg" viewBox="0 0 50.01 49.97" width="50" height="50" fill="#d4d4d4"><path d="M36.49 31.23a84.6 84.6 0 00-6.36-6.76q-4.23-4.12-4.94-4.23c-.27-.07-1.31.71-3.13 2.32s-3.53 3.26-5.14 4.94a56.44 56.44 0 00-6.61 8.32q-2.37 3.78-2.37 6a2.86 2.86 0 00.66 2 15.23 15.23 0 002.77 2.17 24.83 24.83 0 0011.1 3.93 29.53 29.53 0 005.15 0 25.34 25.34 0 005-1 27.88 27.88 0 005.7-2.72c2-1.21 3.18-2.18 3.58-2.92q.81-1.52-.65-4.69a37.34 37.34 0 00-4.76-7.36zM18.23 13.69a93.41 93.41 0 00-8.07 11.39 54.36 54.36 0 00-4.14 8.16 19.63 19.63 0 00-1 3.84 5.94 5.94 0 00.05 2.62c.14.4.14.51 0 .35s-.47-.62-1-1.36a23.91 23.91 0 01-2.67-5.5 31.74 31.74 0 01-1.36-6.7 17.93 17.93 0 010-2.32c0-.74.18-2 .45-3.73a23 23 0 012.2-6.65 23.54 23.54 0 013.93-5.75 3.82 3.82 0 011.32-1 3.4 3.4 0 011.51.2 14.15 14.15 0 014 2.32l4.13 3.52zm31.37 6.35a21.54 21.54 0 01.4 4.74 29 29 0 01-.3 4.74 24.07 24.07 0 01-1.91 5.84 21 21 0 01-1.21 2.42 15.93 15.93 0 01-1.32 2c-.13.2-.2.26-.2.2l.1-.71a12 12 0 00-.8-5.24 50.3 50.3 0 00-5.34-10.56 102.84 102.84 0 00-7.06-9.78l.6-.5a36.89 36.89 0 016-4.84 7.29 7.29 0 011.91-1 5.29 5.29 0 011.55-.36c.34 0 1 .54 1.92 1.61a23.21 23.21 0 013.13 4.54 23.94 23.94 0 012.53 6.9zM13.38 3.51c-.74.06-1.06 0-.95-.1a9.09 9.09 0 012-1A24.16 24.16 0 0126.8.08a24.49 24.49 0 0111.22 3.43h-.4a15.24 15.24 0 00-3.63.2 24.9 24.9 0 00-6.86 2.41 7.51 7.51 0 01-2.11.87l-.91-.3q-6.79-3.38-10.73-3.18z" fill-rule="evenodd"></path></svg>
